<?xml version="1.0" standalone="no"?><!DOCTYPE svg PUBLIC "-//W3C//DTD SVG 1.1//EN" "http://www.w3.org/Graphics/SVG/1.1/DTD/svg11.dtd"><svg t="1541131968504" class="icon" style="" viewBox="0 0 1024 1024" version="1.1" xmlns="http://www.w3.org/2000/svg" p-id="2286" xmlns:xlink="http://www.w3.org/1999/xlink" width="64" height="64"><defs><style type="text/css"></style></defs><path d="M446.6 577.9c50.1 49.8 108 97.4 130.8 74.4 32.6-32.9 52.6-61.5 124.9-3.7 72.3 57.8 17.1 96.7-14.5 128.6-36.4 36.8-172.8 2.6-308-131.9C244.7 510.8 209.5 374.4 246 337.6c31.6-31.9 70-87.5 128.2-15.5 58.2 72 29.8 92.3-2.8 125.2-22.7 23.1 25.2 80.8 75.2 130.6z m72.7-237.7s-15.1-2.3-25.7 8.3c-10.9 10.9-11.4 29.7 0.1 41.2 6.8 6.8 16.3 8.2 16.3 8.2 18.7 3.5 46.7 9.4 76.6 39.4 29.9 29.9 35.8 58.1 39.3 76.8 0 0 1.5 9.6 8.2 16.4 11.5 11.5 30.2 11 41.1 0.1 10.6-10.6 8.2-25.8 8.2-25.8-5.9-37.8-24.2-77.3-55.6-108.8-31.4-31.5-70.8-49.8-108.5-55.8zM661 362.8c54.8 54.9 78.2 117.2 70.5 167.7 0 0-2.6 16 7.8 26.5 11.7 11.8 30.3 11.1 41.3 0.1 7.1-7.1 8.6-18.6 8.6-18.6 6.3-43.7-1.6-131.4-87-217-85.4-85.5-173-93.5-216.5-87.2 0 0-11.5 1.5-18.5 8.6-11 11-11.7 29.7 0.1 41.4 10.4 10.4 26.4 7.8 26.4 7.8 50.3-7.6 112.5 15.8 167.3 70.7z m0 0" fill="#7e61ef" p-id="2287" data-spm-anchor-id="a313x.7781069.0.i4" class=""></path></svg>